HIERARCHY
ROOT Hips
{
    OFFSET 0.000000 0.000000 0.000000
    CHANNELS 6 Xposition Yposition Zposition Zrotation Xrotation Yrotation
    JOINT Spine
    {
        OFFSET -0.000000 7.236184 0.000000
        CHANNELS 3 Zrotation Xrotation Yrotation
        JOINT Spine1
        {
            OFFSET -0.000000 20.420147 0.000000
            CHANNELS 3 Zrotation Xrotation Yrotation
            JOINT Neck
            {
                OFFSET -0.000000 20.336288 1.848754
                CHANNELS 3 Zrotation Xrotation Yrotation
                JOINT Head
                {
                    OFFSET -0.000000 12.354461 -1.764923
                    CHANNELS 3 Zrotation Xrotation Yrotation
                    End Site
                    {
                        OFFSET -0.000000 22.061537 0.000000
                    }
                }
            }
            JOINT LeftShoulder
            {
                OFFSET 3.573296 18.396038 -0.314103
                CHANNELS 3 Zrotation Xrotation Yrotation
                JOINT LeftArm
                {
                    OFFSET 10.880760 0.000000 0.000000
                    CHANNELS 3 Zrotation Xrotation Yrotation
                    JOINT LeftForeArm
                    {
                        OFFSET 27.185530 0.000000 0.000000
                        CHANNELS 3 Zrotation Xrotation Yrotation
                        JOINT LeftHand
                        {
                            OFFSET 27.825975 0.000000 0.000000
                            CHANNELS 3 Zrotation Xrotation Yrotation
                            End Site
                            {
                                OFFSET 13.236923 0.000000 0.000000
                            }
                        }
                    }
                }
            }
            JOINT RightShoulder
            {
                OFFSET -3.474926 18.396038 -0.314103
                CHANNELS 3 Zrotation Xrotation Yrotation
                JOINT RightArm
                {
                    OFFSET -10.880760 0.000000 0.000000
                    CHANNELS 3 Zrotation Xrotation Yrotation
                    JOINT RightForeArm
                    {
                        OFFSET -27.185530 0.000000 0.000000
                        CHANNELS 3 Zrotation Xrotation Yrotation
                        JOINT RightHand
                        {
                            OFFSET -27.825975 0.000000 0.000000
                            CHANNELS 3 Zrotation Xrotation Yrotation
                            End Site
                            {
                                OFFSET -13.236923 0.000000 0.000000
                            }
                        }
                    }
                }
            }
        }
    }
    JOINT LeftUpLeg
    {
        OFFSET 8.824615 0.000000 0.000000
        CHANNELS 3 Zrotation Xrotation Yrotation
        JOINT LeftLeg
        {
            OFFSET -0.000000 -35.111282 0.000000
            CHANNELS 3 Zrotation Xrotation Yrotation
            JOINT LeftFoot
            {
                OFFSET -0.000000 -42.324711 0.000000
                CHANNELS 3 Zrotation Xrotation Yrotation
                JOINT LeftToeBase
                {
                    OFFSET -0.000000 -5.735999 13.236923
                    CHANNELS 3 Zrotation Xrotation Yrotation
                    End Site
                    {
                        OFFSET -0.000000 0.000000 3.529846
                    }
                }
            }
        }
    }
    JOINT RightUpLeg
    {
        OFFSET -8.824615 0.000000 0.000000
        CHANNELS 3 Zrotation Xrotation Yrotation
        JOINT RightLeg
        {
            OFFSET -0.000000 -35.111282 0.000000
            CHANNELS 3 Zrotation Xrotation Yrotation
            JOINT RightFoot
            {
                OFFSET -0.000000 -42.324711 0.000000
                CHANNELS 3 Zrotation Xrotation Yrotation
                JOINT RightToeBase
                {
                    OFFSET -0.000000 -5.735999 13.236923
                    CHANNELS 3 Zrotation Xrotation Yrotation
                    End Site
                    {
                        OFFSET -0.000000 0.000000 3.529846
                    }
                }
            }
        }
    }
}
MOTION
Frames:    4
Frame Time:    0.008333
-4.017943    82.059570    115.125824    -1.033755    -3.120164    -178.657806    -1.423668    -11.471066    0.671114    0.243580    7.576453    0.798036    2.825072    9.076892    -2.173105    5.220685    -8.302335    -1.336360    -1.105196    18.547436    -3.350162    -38.870022    48.641018    -43.571728    0.181227    -3.603969    -16.210976    18.001190    -3.366357    1.339913    7.843477    19.128345    -3.669539    33.883060    48.754166    43.843277    -1.339632    -6.465351    16.942514    -13.912980    -5.867333    -3.293545    2.928108    -3.499178    -2.655345    -1.259574    11.339878    2.877041    -4.076540    -10.326304    -7.119961    -0.194623    0.211753    0.215651    -3.511909    1.529935    3.157420    2.931668    3.610656    1.382087    -2.181175    -6.661575    -12.302143    -1.159802    -0.222538    1.254793    
-4.008781    82.057404    115.133842    -1.025616    -3.150808    -178.630569    -1.417744    -11.445109    0.671612    0.248158    7.561312    0.797321    2.831822    9.004190    -2.179789    5.211338    -8.445891    -1.341327    -1.105366    18.538492    -3.360245    -38.895210    48.620209    -43.552097    0.165325    -3.631718    -16.209805    17.976793    -3.395515    1.347245    7.851965    19.133556    -3.653194    33.918781    48.767612    43.764965    -1.255647    -6.682137    17.026316    -13.694368    -6.099590    -3.315602    2.919457    -3.639278    -2.638852    -1.226491    11.527398    2.883686    -4.096392    -10.396559    -7.206856    -0.224942    0.208580    0.249247    -3.500945    1.501135    3.156575    2.937212    3.607130    1.378802    -2.187661    -6.675216    -12.317695    -1.151411    -0.225121    1.245719    
-3.999643    82.055260    115.141663    -1.017466    -3.181694    -178.603882    -1.411613    -11.418861    0.672310    0.252380    7.546105    0.796838    2.838680    8.930234    -2.186473    5.202332    -8.593396    -1.346113    -1.105301    18.529902    -3.369968    -38.922100    48.597336    -43.531647    0.148067    -3.660318    -16.208769    17.952881    -3.425658    1.354843    7.860269    19.139608    -3.637199    33.953762    48.779663    43.688099    -1.170440    -6.900662    17.111807    -13.473786    -6.334445    -3.333850    2.910563    -3.779241    -2.622096    -1.192996    11.714645    2.894485    -4.116994    -10.466564    -7.299037    -0.256092    0.206028    0.283764    -3.490188    1.472343    3.155902    2.942924    3.603328    1.376095    -2.193956    -6.689023    -12.333405    -1.143064    -0.227935    1.236693    
-3.990845    82.053246    115.148994    -1.009959    -3.212815    -178.578812    -1.405918    -11.393185    0.673318    0.256320    7.531213    0.796681    2.844665    8.854612    -2.193142    5.195272    -8.743301    -1.350403    -1.105767    18.522032    -3.378704    -38.951298    48.571575    -43.509495    0.129136    -3.690141    -16.208460    17.930521    -3.457119    1.363293    7.868289    19.146616    -3.622448    33.986450    48.789177    43.615246    -1.085468    -7.117146    17.199066    -13.255440    -6.567801    -3.348118    2.900966    -3.916040    -2.605903    -1.159819    11.896682    2.913265    -4.138607    -10.534252    -7.398548    -0.287885    0.203621    0.318994    -3.480557    1.443596    3.155106    2.948884    3.599026    1.373943    -2.199686    -6.702650    -12.348130    -1.135132    -0.230179    1.228116    
